<svg xmlns="http://www.w3.org/2000/svg" xmlns:xlink="http://www.w3.org/1999/xlink" id="Layer_1" x="0" y="0" enable-background="new 0 0 24 24" version="1.1" viewBox="0 0 24 24" xml:space="preserve"><style type="text/css">.st0{fill:#001833}</style><path id="path-1_1_" d="M15,11.5v-6l-3-3l-3,3v2H3v14h18v-10H15z M7,19.5H5v-2h2V19.5z M7,15.5H5v-2h2V15.5z M7,11.5H5	v-2h2V11.5z M13,19.5h-2v-2h2V19.5z M13,15.5h-2v-2h2V15.5z M13,11.5h-2v-2h2V11.5z M13,7.5h-2v-2h2V7.5z M19,19.5h-2v-2h2V19.5z M19,15.5h-2v-2h2V15.5z" class="st0"/></svg>