<svg xmlns="http://www.w3.org/2000/svg" xmlns:xlink="http://www.w3.org/1999/xlink" id="Layer_1" x="0" y="0" enable-background="new 0 0 24 24" version="1.1" viewBox="0 0 24 24" xml:space="preserve"><style type="text/css">.st0{fill:#001833}</style><path id="path-1_1_" d="M14.5,4H7.1C6.4,4,5.9,4.4,5.6,5l-2.5,5.7C3,10.8,3,11,3,11.2v1.5l0,0v0.1	c0,0.9,0.7,1.6,1.6,1.6h5.2l-0.7,3.7v0.2c0,0.3,0.2,0.6,0.3,0.9l0.8,0.8l5.4-5.3c0.3-0.3,0.5-0.6,0.5-1.1v-8C16.1,4.7,15.4,4,14.5,4	z M17.7,4v9.6H21V4H17.7z" class="st0"/></svg>