<svg xmlns="http://www.w3.org/2000/svg" xmlns:xlink="http://www.w3.org/1999/xlink" id="Layer_1" x="0" y="0" enable-background="new 0 0 24 24" version="1.1" viewBox="0 0 24 24" xml:space="preserve"><style type="text/css">.st0{fill:#001833}</style><path id="path-1_1_" d="M18,9.5c1.1,0,2,0.9,2,2v8c0,1.1-0.9,2-2,2H6c-1.1,0-2-0.9-2-2v-8c0-1.1,0.9-2,2-2h9.1v-2	c0-1.7-1.4-3.1-3.1-3.1S8.9,5.8,8.9,7.5H7c0-2.8,2.2-5,5-5s5,2.2,5,5v2H18z M12,17.5c1.1,0,2-0.9,2-2s-0.9-2-2-2s-2,0.9-2,2	S10.9,17.5,12,17.5z" class="st0"/></svg>